<?xml version="1.0" encoding="UTF-8" standalone="no"?>
<!-- Created with Inkscape (http://www.inkscape.org/) -->

<svg
   xmlns:dc="http://purl.org/dc/elements/1.1/"
   xmlns:cc="http://creativecommons.org/ns#"
   xmlns:rdf="http://www.w3.org/1999/02/22-rdf-syntax-ns#"
   xmlns:svg="http://www.w3.org/2000/svg"
   xmlns="http://www.w3.org/2000/svg"
   xmlns:sodipodi="http://sodipodi.sourceforge.net/DTD/sodipodi-0.dtd"
   xmlns:inkscape="http://www.inkscape.org/namespaces/inkscape"
   width="210mm"
   height="297mm"
   viewBox="0 0 744.09448819 1052.3622047"
   id="svg2"
   version="1.1"
   inkscape:version="0.91 r13725"
   sodipodi:docname="logo - kopie.svg"
   inkscape:export-filename="C:\Users\Kuba\Documents\GitHub\Personal-Assistant\doc\businessPlan\src\logo_white.png"
   inkscape:export-xdpi="90"
   inkscape:export-ydpi="90">
  <defs
     id="defs4" />
  <sodipodi:namedview
     id="base"
     pagecolor="#ffffff"
     bordercolor="#666666"
     borderopacity="1.0"
     inkscape:pageopacity="0.0"
     inkscape:pageshadow="2"
     inkscape:zoom="0.7"
     inkscape:cx="62.209579"
     inkscape:cy="674.29902"
     inkscape:document-units="px"
     inkscape:current-layer="layer1"
     showgrid="false"
     inkscape:window-width="1920"
     inkscape:window-height="1017"
     inkscape:window-x="-8"
     inkscape:window-y="-8"
     inkscape:window-maximized="1" />
  <metadata
     id="metadata7">
    <rdf:RDF>
      <cc:Work
         rdf:about="">
        <dc:format>image/svg+xml</dc:format>
        <dc:type
           rdf:resource="http://purl.org/dc/dcmitype/StillImage" />
        <dc:title />
      </cc:Work>
    </rdf:RDF>
  </metadata>
  <g
     inkscape:label="Vrstva 1"
     inkscape:groupmode="layer"
     id="layer1">
    <path
       style="fill:#ffffff;fill-opacity:1;fill-rule:evenodd;stroke:#ffffff;stroke-width:7;stroke-opacity:1;stroke-miterlimit:4;stroke-dasharray:none"
       id="path4161"
       d="m 316.5952,258.80956 c -0.17311,0.70489 -0.30573,1.42623 -0.51929,2.11465 -3.72463,12.00794 0.89601,-4.32674 -3.9989,12.22296 -1.14189,3.86077 -2.25612,7.73547 -3.26686,11.64949 -1.98523,7.68733 -5.87579,24.76048 -7.58644,32.15985 -1.44947,6.11119 -2.86759,12.23337 -4.34834,18.3336 -4.04113,16.64807 -4.92312,19.70382 -9.16115,36.1801 -3.37318,13.11404 -5.41205,20.63723 -8.27289,33.87151 -1.1342,5.24686 -2.10211,10.54391 -3.15317,15.81585 -3.86997,21.15618 -6.70057,42.5745 -9.01863,64.04629 -0.12967,1.60891 -0.63606,5.68639 -0.22007,7.55123 1.15657,5.18475 8.33643,7.25551 11.69197,8.71116 2.27867,0.78247 4.54032,1.64123 6.83608,2.34742 2.75187,0.84653 5.52851,1.57282 8.3022,2.30931 10.86098,2.88389 21.79116,5.3889 32.78927,7.40145 3.9886,0.72986 7.9926,1.33546 11.9889,2.00321 8.7517,1.21709 12.5643,1.83269 21.1329,2.71447 6.0414,0.62173 9.8094,1.12523 15.7817,0.44601 5.1202,-0.58233 6.7121,-1.42206 11.4501,-3.10828 1.3634,-0.69528 2.7267,-1.39057 4.0902,-2.08587 0,0 -6.0755,5.62301 -6.0755,5.62301 l 0,0 c -1.3369,0.62863 -2.6738,1.25727 -4.0107,1.88591 -4.7203,1.51804 -6.2002,2.25773 -11.2849,2.69123 -6.005,0.51197 -9.4222,-0.0637 -15.4853,-0.82369 -7.2904,-0.91379 -13.5107,-1.8971 -20.833,-2.99584 -11.8251,-1.98376 -23.60919,-4.1197 -35.35069,-6.72938 -4.30913,-0.95775 -13.92535,-3.23944 -18.45129,-4.51639 -2.37547,-0.6702 -4.72291,-1.4771 -7.08436,-2.21563 -3.94519,-1.55802 -11.2989,-3.34635 -12.55921,-9.39399 -0.41992,-2.01485 0.3002,-6.17445 0.51566,-7.91841 1.18558,-8.22161 2.40668,-16.43617 3.61519,-24.65302 0.98388,-6.68917 2.84958,-19.36458 3.94949,-25.77115 0.82638,-4.81357 1.77659,-9.59523 2.66492,-14.39284 3.10935,-15.09546 3.46063,-17.53946 7.22355,-32.71061 1.42703,-5.7532 2.98921,-11.45603 4.4828,-17.18443 4.70471,-18.04458 9.44433,-36.08545 13.37281,-54.40724 1.2305,-5.62537 2.47029,-11.24781 3.69151,-16.87612 2.4843,-11.44919 3.21807,-15.62269 5.94603,-26.33513 2.68188,-10.53138 1.18061,-3.79804 3.31124,-11.76935 0.1658,-0.62023 0.27697,-1.25985 0.41543,-1.88979 0,0 7.42868,-4.30155 7.42868,-4.30155 z"
       inkscape:connector-curvature="0" />
    <path
       style="fill:#ffffff;fill-opacity:1;fill-rule:evenodd;stroke:#ffffff;stroke-width:7;stroke-opacity:1;stroke-miterlimit:4;stroke-dasharray:none"
       id="path4163"
       d="m 450.87628,302.36772 c -1.0019,3.69228 -1.6079,5.83023 -2.5432,10.1232 -1.2728,5.84228 -4.3863,22.22339 -5.2782,27.00816 -2.2217,11.9195 -5.115,28.15043 -7.2402,39.98454 -3.3629,18.21369 -6.774,36.42207 -10.5429,54.55478 -2.2581,10.86459 -4.7009,21.69201 -7.103,32.52457 -1.1916,6.07441 -2.8056,12.05471 -4.0758,18.11023 0,0 -8.3796,3.6233 -8.3796,3.6233 l 0,0 c 1.5713,-6.25784 3.7437,-12.34979 5.2473,-18.62885 7.7853,-29.00165 14.4478,-58.30812 19.6636,-87.90501 1.1577,-6.85941 2.3664,-13.71016 3.473,-20.57825 2.9594,-18.36638 5.5219,-36.79696 8.298,-55.19198 0,0 8.481,-3.62469 8.481,-3.62469 z"
       inkscape:connector-curvature="0" />
    <path
       style="fill:#ffffff;fill-opacity:1;fill-rule:evenodd;stroke:#ffffff;stroke-width:7;stroke-opacity:1;stroke-miterlimit:4;stroke-dasharray:none"
       id="path4169"
       d="m 430.35568,240.89123 c -0.3158,-0.46297 -0.5793,-0.97472 -0.9474,-1.38892 -4.5548,-5.12507 -10.6985,-8.07647 -16.8327,-10.4194 -8.946,-3.41688 -14.9308,-4.55688 -24.3128,-6.86279 -10.1376,-1.80001 -15.9329,-3.16067 -26.1708,-3.70959 -6.4669,-0.34673 -13.5989,-0.44686 -19.9384,1.99138 -8.9446,3.44019 -7.3242,3.25847 -3.5039,4.69651 0.4233,2.51597 0.1961,5.29455 1.2699,7.54786 4.152,8.71357 12.8696,15.22198 20.2481,19.85052 11.3949,7.14804 26.2306,13.40089 38.9148,17.25933 6.2211,1.89241 12.6593,2.9356 18.9889,4.40341 5.3833,0.44496 10.7396,1.26662 16.1499,1.33487 10.7895,0.1361 24.0867,-2.03841 33.5714,-8.67448 1.0062,-0.70407 1.8733,-1.62423 2.81,-2.43633 -1.409,1.00867 -2.8181,2.01735 -4.2271,3.02604 0,0 6.3955,-4.22316 6.3955,-4.22316 l 0,0 c -2.3774,2.34442 -4.7548,4.68882 -7.1322,7.03323 -0.9071,0.71408 -1.7559,1.52858 -2.7213,2.14226 -9.3829,5.96438 -22.0927,7.47325 -32.484,6.98212 -5.2923,-0.25015 -10.5148,-1.2021 -15.7721,-1.80315 -6.2481,-1.57034 -12.5903,-2.78836 -18.7442,-4.71102 -12.0801,-3.77415 -28.4749,-10.42182 -39.5914,-16.78559 -7.6455,-4.37676 -17.094,-10.5186 -21.7793,-19.12157 -1.2461,-2.2881 -1.1557,-5.20671 -1.7335,-7.81007 2.6583,-3.42775 4.909,-7.28393 7.9748,-10.28329 3.5878,-3.50997 10.2456,-4.5906 14.501,-4.88333 3.6677,-0.25232 7.3415,-0.0438 10.9928,0.21471 9.9872,0.70693 16.225,2.08697 26.1354,3.8377 9.2261,2.13485 15.9436,3.4222 24.8486,6.4725 6.4516,2.20995 12.9001,4.94511 18.0543,9.75087 0.457,0.42614 0.8284,0.9499 1.2426,1.42484 0,0 -6.2069,5.14454 -6.2069,5.14454 z"
       inkscape:connector-curvature="0" />
    <path
       style="fill:#00f400;fill-opacity:1;fill-rule:evenodd;stroke:#00ff00;stroke-width:0.57095027;stroke-opacity:1"
       id="path4257"
       d="m 332.57528,254.74438 c 6.0087,8.90182 17.1308,15.03636 27.8769,19.44572 4.8051,1.97156 9.8583,3.49455 14.7874,5.24182 24.5491,7.35236 50.405,10.70861 76.1392,13.69738 0,0 -10.8359,2.53625 -10.8359,2.53625 l 0,0 c -25.3139,-3.39372 -50.6758,-7.18087 -74.9719,-14.17934 -5.1945,-1.7256 -10.4952,-3.245 -15.5834,-5.17678 -10.4895,-3.98246 -19.6033,-8.83391 -28.0032,-15.35877 -1.3836,-1.07465 -2.9156,-2.66371 -4.1878,-3.94597 0,0 14.7787,-2.26031 14.7787,-2.26031 z"
       inkscape:connector-curvature="0" />
    <path
       style="fill:#00b900;fill-opacity:1;fill-rule:evenodd;stroke:#00e600;stroke-width:0.61454529;stroke-opacity:1"
       id="path4263"
       d="m 336.61788,244.73864 c 2.0489,2.76703 4.9018,4.84936 7.6356,6.88082 4.7905,3.55976 5.5347,3.93035 10.7873,7.37963 14.2411,8.62355 29.2757,16.37922 45.4348,20.71763 3.5676,0.95784 7.2142,1.5923 10.8214,2.38845 3.5778,0.44244 7.1361,1.09134 10.7334,1.32729 0.4035,0.0265 -1.4004,-0.64575 -0.9984,-0.68879 3.0366,-0.32511 6.109,-0.0527 9.1601,-0.18502 7.1548,-0.3102 14.2387,-1.19504 21.3314,-2.12513 1.7366,-0.26871 3.4733,-0.53743 5.2099,-0.80615 0,0 12.6751,3.0708 12.6751,3.0708 l 0,0 c -1.839,0.2536 -3.6781,0.5072 -5.5171,0.76079 -7.4369,0.86446 -14.8672,1.6955 -22.3543,1.99869 -3.1495,0.12754 -6.3059,0.34172 -9.4544,0.19045 -7.0962,-0.34092 -14.177,-0.97753 -21.248,-1.66549 -3.5578,-0.34614 -7.0849,-0.95715 -10.6273,-1.43573 -3.6075,-0.82883 -7.2542,-1.5024 -10.8224,-2.48647 -16.5404,-4.56156 -31.9108,-12.537 -46.7393,-20.99784 -6.4875,-4.03491 -5.6802,-3.4371 -11.6034,-7.45848 -3.2448,-2.20287 -6.8055,-4.38484 -9.1686,-7.60068 0,0 14.7442,0.73523 14.7442,0.73523 z"
       inkscape:connector-curvature="0" />
    <path
       style="fill:#ffffff;fill-opacity:1;fill-rule:evenodd;stroke:#ffffff;stroke-width:7;stroke-opacity:1;stroke-miterlimit:4;stroke-dasharray:none"
       id="path4280"
       d="m 354.78738,175.2571 c -11.8729,1.24934 -23.3618,4.52815 -33.0184,11.38304 -3.0157,2.1408 -9.08702,6.57218 -11.98447,8.8706 -7.87393,6.96915 -12.83853,12.90363 -18.62011,21.7114 -3.90285,5.94573 -5.39239,9.36962 -6.97189,17.37452 l -11.95414,-0.57056 0,0 c 3.2303,-6.04171 5.16439,-10.00466 9.04168,-15.76903 1.89366,-2.81532 3.8749,-5.57973 6.02882,-8.2013 5.07528,-6.17727 9.37157,-9.98161 15.13502,-15.531 2.81468,-2.34554 5.52175,-4.82666 8.44409,-7.03662 4.703,-3.55652 10.7308,-7.3572 16.1082,-9.92403 4.2389,-2.02338 8.77,-3.26517 13.2754,-4.50715 z"
       inkscape:connector-curvature="0"
       sodipodi:nodetypes="cscscccsscsscc" />
    <path
       style="fill:#ffffff;fill-opacity:1;fill-rule:evenodd;stroke:#ffffff;stroke-width:7;stroke-opacity:1;stroke-miterlimit:4;stroke-dasharray:none"
       id="path4282"
       d="m 310.37717,133.51822 c -1.22386,0.35247 -2.47883,0.61095 -3.6716,1.05743 -5.71244,2.13824 -10.69229,4.77307 -15.97572,7.97313 -7.96081,4.82173 -16.34751,10.79469 -23.60732,16.57033 -4.01704,3.19585 -7.84123,6.62694 -11.76184,9.94041 -13.84725,12.52484 -26.14635,26.72976 -35.64756,42.84249 -4.83146,8.1935 -6.02753,11.39367 -9.86101,19.84053 0,0 -11.25802,-0.49892 -11.25802,-0.49892 l 0,0 c 4.13619,-8.36167 5.61982,-11.8275 10.63772,-19.94825 9.95049,-16.10343 22.52936,-30.36987 36.5274,-43.0674 3.86426,-3.33592 7.65317,-6.76119 11.59278,-10.00775 3.78,-3.115 7.65969,-6.10838 11.55972,-9.07173 5.25387,-3.99204 13.08379,-9.70303 18.91306,-13.33608 3.32727,-2.07368 5.00688,-2.7741 8.20098,-4.25767 0,0 14.35141,1.96348 14.35141,1.96348 z"
       inkscape:connector-curvature="0" />
    <path
       style="fill:#ffffff;fill-opacity:1;fill-rule:evenodd;stroke:#ffffff;stroke-width:7;stroke-opacity:1;stroke-miterlimit:4;stroke-dasharray:none"
       id="path4322"
       d="m 483.41288,327.03242 c 4.9735,-0.99022 9.9021,-2.20141 14.2027,-4.14244 1.793,-0.8093 3.4209,-1.75115 5.1313,-2.62672 1.7588,-1.14404 3.6114,-2.23775 5.2762,-3.43212 5.135,-3.68387 9.6409,-7.7991 12.9333,-12.16057 2.615,-3.46405 2.8678,-4.52107 4.5242,-8.08411 1.5478,-4.73117 0.9228,-2.42827 1.9184,-6.90602 0,0 8.1969,0.1575 8.1969,0.1575 l 0,0 c -1.3358,4.51295 -0.5544,2.19165 -2.3812,6.96079 -1.8163,3.61642 -2.1099,4.6539 -4.834,8.17094 -3.3636,4.34276 -7.9746,8.50724 -12.9116,12.28337 -1.5766,1.20589 -3.3003,2.33951 -4.9504,3.50926 -1.5822,0.9078 -3.0842,1.87159 -4.7467,2.7234 -1.3408,0.68705 -2.7672,1.31377 -4.2429,1.88284 -1.1263,0.4343 -2.3551,0.75006 -3.5382,1.11777 -1.5847,0.49253 -3.1739,0.96809 -4.7948,1.40686 0,0 -9.7832,-0.86075 -9.7832,-0.86075 z"
       inkscape:connector-curvature="0" />
    <path
       style="fill:#ffffff;fill-opacity:1;fill-rule:evenodd;stroke:#ffffff;stroke-width:7;stroke-opacity:1;stroke-miterlimit:4;stroke-dasharray:none"
       id="path4332"
       d="m 544.66768,433.8774 c 2.7244,-0.28079 5.4937,-0.32026 8.173,-0.84234 28.2234,-5.50033 55.743,-19.34121 77.4002,-34.74376 7.0604,-5.02133 13.3379,-10.70221 20.0069,-16.05336 5.2178,-6.16913 11.138,-12.01021 15.6534,-18.50731 4.3318,-6.23311 7.6814,-12.86689 10.7753,-19.52095 2.8695,-6.17204 5.0186,-12.52884 7.0789,-18.87968 4.8871,-15.06394 7.3558,-30.25524 9.7427,-45.57366 0,0 13.0113,1.85982 13.0113,1.85982 l 0,0 c -3.4794,15.19266 -7.0181,30.4115 -12.4928,45.31275 -4.7412,12.9048 -10.5812,26.61151 -18.9399,38.46301 -4.5998,6.52161 -10.5181,12.42225 -15.7772,18.63346 -6.6103,5.39366 -12.8886,11.059 -19.8309,16.18081 -20.6347,15.224 -44.9186,28.73921 -71.1793,36.71477 -2.1508,0.65334 -4.4162,0.99975 -6.6244,1.49949 0,0 -16.9972,-4.54305 -16.9972,-4.54305 z"
       inkscape:connector-curvature="0" />
    <path
       style="fill:#ffffff;fill-opacity:1;fill-rule:evenodd;stroke:#ffffff;stroke-width:7;stroke-opacity:1;stroke-miterlimit:4;stroke-dasharray:none"
       id="path4391"
       d="m 297.75564,61.723942 c -4.2902,1.541218 -8.70276,2.776878 -12.87054,4.623648 -34.9439,15.4838 -66.65863,35.45914 -94.87735,61.44475 -25.37797,23.36965 -37.15147,40.15764 -58.40628,66.80266 -7.62405,10.66423 -15.24811,21.32846 -22.87216,31.99271 0,0 -10.13142,-0.6383 -10.13142,-0.6383 l 0,0 c 7.89828,-10.66193 15.79655,-21.32385 23.69483,-31.98578 21.26808,-26.24221 33.89054,-43.53471 58.6436,-66.97382 26.628,-25.21452 56.06317,-45.126679 88.16339,-62.514402 3.46757,-1.878259 7.12657,-3.379187 10.68983,-5.068775 0,0 17.9661,2.317309 17.9661,2.317309 z"
       inkscape:connector-curvature="0" />
    <path
       style="fill:#ffffff;fill-opacity:1;fill-rule:evenodd;stroke:#ffffff;stroke-width:7;stroke-opacity:1;stroke-miterlimit:4;stroke-dasharray:none"
       id="path4407"
       d="m 602.37658,285.97236 c -0.2384,3.54944 -0.2348,7.09578 -0.7153,10.64835 -2.322,17.1696 -6.6922,32.36063 -17.0991,44.47637 -9.6711,11.25901 -20.2489,16.64499 -31.1791,23.61497 -5.5504,2.93454 -11.1007,5.86907 -16.6511,8.80361 0,0 -8.2202,-3.05647 -8.2202,-3.05647 l 0,0 c 5.5575,-2.89672 11.115,-5.79344 16.6725,-8.69016 10.8604,-7.02163 20.6195,-11.92316 30.131,-23.27249 9.8863,-11.79647 14.3986,-26.95565 15.7654,-43.60359 0.2937,-3.57788 -0.047,-7.06483 -0.07,-10.59726 0,0 11.3655,1.67667 11.3655,1.67667 z"
       inkscape:connector-curvature="0" />
    <path
       style="fill:#c8beb7;fill-opacity:1;fill-rule:evenodd;stroke:#c8beb7;stroke-width:0.57210952;stroke-opacity:1"
       id="path4441"
       d="m 408.35618,368.42513 c -0.661,-0.26115 -1.3072,-0.54107 -1.9831,-0.78344 -10.7862,-3.86757 -22.4052,-6.55611 -33.9155,-9.18651 -12.3201,-2.74654 -24.9409,-4.75368 -37.5648,-6.70506 -6.4958,-0.95845 -13.0065,-1.8752 -19.53379,-2.72714 -0.60834,-0.0439 -2.43575,-0.10825 -1.82502,-0.13181 3.95001,-0.15236 7.90671,-0.28104 11.86271,-0.25535 1.2976,0.008 4.6327,1.50005 4.9815,1.62407 4.9072,1.74502 6.441,2.1396 11.7691,3.76489 7.1167,2.09666 14.3296,4.0328 21.4956,6.04654 3.8914,1.09353 7.9731,2.23365 11.7631,3.49938 1.6552,0.5528 3.2611,1.17288 4.8918,1.75932 6.871,2.68711 12.7345,6.33504 18.0287,10.33321 1.4228,-0.15841 1.4715,2.23106 0.3538,2.30436 -5.0805,0.33319 -10.2181,0.18155 -15.3104,-0.0503 -2.0605,-0.0938 -4.0324,-0.61407 -6.0482,-0.92215 -11.7079,-1.7893 -5.1189,-0.81482 -17.7635,-2.62399 -9.6471,-1.30026 -19.3176,-2.52903 -29.025,-3.59921 -6.0998,-0.67246 -10.7414,-1.16188 -16.86733,-1.54236 -2.53149,-0.15722 -5.07264,-0.22875 -7.60893,-0.34313 1.04141,0.0151 4.14775,-0.088 3.12435,0.0454 -7.65822,0.99839 -3.30416,-0.46234 -9.80212,0.84985 -0.87647,0.17701 -1.85568,0.33048 -2.49579,0.77883 -0.27169,0.19029 -0.0111,0.59647 0.2731,0.77783 0.74987,0.4784 1.75803,0.71917 2.63702,1.07876 10.4295,3.18581 21.5537,5.075 32.3049,7.65903 8.765,2.10662 10.1518,2.58273 18.6643,4.97366 7.4962,2.19899 14.9165,4.53449 22.1467,7.12424 1.6204,0.58042 7.4171,2.63056 9.0327,3.75776 0.5761,0.40202 0.6762,1.02889 1.0142,1.54334 -1.1007,0.50793 -2.0294,1.26901 -3.302,1.5238 -3.9297,0.78682 -14.115,0.60266 -17.333,0.59348 -6.6851,-0.0191 -13.3698,-0.0908 -20.0549,-0.12231 -12.0169,-0.0567 -7.8567,-0.24018 -14.3046,0.12761 -7.1799,0.31259 -11.91844,0.29594 -18.86679,1.41232 -2.51005,0.40327 -5.0228,0.88117 -7.36404,1.62288 -3.25647,1.03164 -7.00901,2.88844 -8.42541,5.3241 -0.56643,0.97405 -0.28952,2.08874 -0.43436,3.13311 0.64398,1.04065 1.01455,2.18332 1.9317,3.12195 3.88325,3.97423 12.92573,7.72257 18.615,10.20466 3.9606,1.72789 13.7452,5.78276 17.7669,7.45745 5.6068,2.54364 9.9102,4.3213 15.0136,7.27944 1.8789,1.08908 3.758,2.20218 5.338,3.49652 1.7246,1.41264 4.1344,3.99358 3.3821,6.11408 -0.3183,0.89693 -1.5303,1.51697 -2.2954,2.27545 -1.7146,0.43196 -3.3574,1.03537 -5.1435,1.29587 -2.1823,0.31831 -4.4335,0.39385 -6.664,0.42626 -5.6508,0.0821 -11.3055,0.0156 -16.9558,-0.083 -3.4263,-0.0599 -9.75367,-0.54901 -13.22972,-0.71722 -1.98338,-0.096 -3.97125,-0.14212 -5.95685,-0.21318 1.59112,0.092 4.94629,-0.81613 4.77342,0.27596 -0.1832,1.15789 -3.34608,0.41523 -4.94383,0.80045 -1.49808,0.36124 -3.00679,0.78075 -4.28818,1.42552 -2.86077,1.43946 -4.11536,3.182 -4.84937,5.53404 -0.38397,1.23039 -0.29923,2.50842 -0.44899,3.76263 0.35373,1.27747 0.46447,2.59842 1.06095,3.8324 2.96395,6.13143 11.21312,10.47885 18.41891,14.18837 0,0 -10.62015,0.66897 -10.62015,0.66897 l 0,0 c -7.24794,-3.97818 -15.19469,-8.41236 -18.19637,-14.72193 -0.61651,-1.29586 -0.74963,-2.67779 -1.12456,-4.0167 0.22124,-2.78551 -0.0809,-4.93763 1.92218,-7.4859 1.75145,-2.22816 4.28553,-3.28363 7.60899,-4.15383 1.63954,-0.42929 3.34509,-0.81195 5.09341,-0.91095 5.26585,-0.29822 10.56379,-0.18325 15.84562,-0.27487 14.52554,0.62541 -3.24744,-0.17633 12.05734,0.63693 2.2554,0.11985 4.5381,0.0597 6.772,0.305 0.9931,0.10906 -4.0146,0.16886 -3.0129,0.10788 8.5076,-0.5179 3.6544,0.19156 10.8151,-1.19684 0.78,-0.57146 1.9377,-0.98094 2.3401,-1.71436 1.0018,-1.82627 -0.8482,-4.31672 -2.2751,-5.61943 -1.4034,-1.28142 -3.1492,-2.37475 -4.889,-3.44324 -4.8955,-3.00648 -8.9255,-4.69136 -14.3993,-7.24799 -11.84501,-4.96865 -5.86948,-2.48199 -17.92766,-7.45882 -4.72726,-1.97859 -11.19886,-4.56806 -15.49275,-7.11994 -1.72681,-1.02621 -3.42867,-2.1202 -4.7012,-3.42325 -1.01781,-1.0422 -1.36835,-2.3281 -2.05234,-3.49214 0.22271,-1.17038 -0.007,-2.4263 0.66832,-3.51112 1.62375,-2.60504 5.75005,-4.59997 9.28375,-5.70272 2.47152,-0.7713 5.11984,-1.26621 7.76472,-1.68457 7.23074,-1.14371 12.09744,-1.11742 19.55636,-1.4278 6.5353,-0.049 13.0703,-0.12057 19.6059,-0.14697 3.9012,-0.0158 7.8028,-0.002 11.704,0.0204 6.6322,0.0391 -1.7887,0.42916 11.7825,-0.0144 4.593,-0.15013 5.1352,-0.29621 8.7827,-0.81621 -0.069,-0.36268 0.1347,-0.80799 -0.2073,-1.088 -1.4421,-1.18042 -6.6256,-3.12823 -8.1418,-3.70888 -6.8832,-2.63591 -14.0064,-4.96864 -21.2212,-7.13915 -8.2972,-2.35143 -9.9161,-2.9063 -18.4998,-4.94234 -8.05575,-1.91082 -11.33545,-2.47386 -19.4453,-4.16842 -2.90557,-0.60711 -5.82871,-1.17807 -8.70337,-1.85114 -2.15054,-0.50352 -4.24276,-1.11784 -6.36417,-1.67676 -0.92274,-0.50281 -5.17699,-1.79735 -3.08846,-3.48319 0.71066,-0.57366 1.95837,-0.6974 3.01078,-0.90713 8.39174,-1.67242 18.96431,-0.53176 27.13199,-0.88205 2.46793,0.13177 4.94083,0.22397 7.40353,0.3953 15.2568,1.0614 30.2525,3.42104 45.3329,5.24908 1.9303,0.25929 16.4827,2.22117 18.8505,2.5129 2.2938,0.28259 7.6028,-0.75868 6.9006,0.76997 -0.7532,1.63989 -4.9843,0.27547 -7.4686,0.46662 -0.3323,0.0255 0.9731,0.2601 1.002,0.031 0.051,-0.40763 -0.5807,-0.71419 -0.871,-1.07128 -4.8886,-3.97822 -10.5033,-7.50174 -17.0956,-10.11616 -1.5653,-0.57806 -3.1072,-1.18724 -4.6959,-1.7342 -3.5008,-1.20523 -7.7532,-2.45874 -11.3324,-3.50435 -7.115,-2.07856 -14.2863,-4.06489 -21.4514,-6.05964 -5.0994,-1.44101 -7.9747,-2.2167 -12.8684,-3.72753 -1.3347,-0.41211 -2.71048,-0.77532 -3.97104,-1.28631 -0.84358,-0.34197 -3.23607,-1.05641 -2.30098,-1.25623 7.12222,-1.52203 8.73142,-1.21418 13.53042,-0.60513 6.2819,0.90498 12.5742,1.78128 18.8132,2.82056 12.2224,2.05235 24.4477,4.13023 36.3898,6.87664 12.9399,3.02669 25.795,6.24015 38.4172,9.85184 0,0 -12.0078,0.93619 -12.0078,0.93619 z"
       inkscape:connector-curvature="0" />
    <path
       style="fill:#c8beb7;fill-opacity:1;fill-rule:evenodd;stroke:#c8beb7;stroke-width:0.69666302;stroke-opacity:1"
       id="path4443"
       d="m 395.50348,399.07868 c 5.2268,2.61 10.5762,5.20205 14.8872,8.15628 1.1197,0.7673 2.1186,1.57026 3.1779,2.35539 0.7254,0.84634 1.623,1.66573 2.1759,2.53901 1.689,2.66754 1.8145,4.88468 -1.4736,7.30492 -0.9779,0.71976 -2.1269,1.41139 -3.5373,1.95989 -1.6667,0.64819 -3.7156,1.05552 -5.5734,1.58327 -6.3526,1.36786 -13.1356,2.19231 -19.9018,2.99252 -2.6972,0.31898 -8.5291,0.92633 -11.2429,1.41263 -1.5193,0.27228 -2.9185,0.66867 -4.3778,1.003 -1.006,0.51246 -2.5149,0.8876 -3.0181,1.53738 -1.5315,1.978 0.5989,5.25815 1.9312,6.90388 1.3852,1.7109 3.1877,3.34773 5.0287,4.96573 3.9975,3.51319 9.0187,7.01314 13.6208,10.35956 5.5482,4.21693 12.6568,8.16233 15.9858,12.92716 0.7938,1.13605 1.4912,2.32007 1.4894,3.51302 0,2.9554 -2.3358,3.90928 -5.5727,6.29791 -2.2207,1.00422 -4.3501,2.0527 -6.662,3.01266 -4.5156,1.87499 -11.6461,4.39632 -16.4082,6.11207 -7.5589,2.72338 -15.0949,5.45429 -22.5614,8.23075 0,0 -15.1673,-0.62978 -15.1673,-0.62978 l 0,0 c 7.7493,-2.72724 15.5387,-5.43238 23.2165,-8.20196 5.3531,-1.93106 10.8643,-3.90316 15.8232,-6.05292 2.1153,-0.91703 4.0483,-1.91865 6.0726,-2.87798 3.0453,-2.15274 5.2901,-3.09806 5.6015,-5.775 0.1314,-1.12899 -0.3352,-2.26877 -0.9491,-3.36377 -2.6501,-4.72738 -9.2725,-8.69922 -14.5228,-12.84139 -3.0789,-2.26935 -11.0798,-8.12529 -13.9516,-10.41042 -3.6146,-2.87622 -7.7405,-6.02257 -9.3003,-9.34646 -0.5138,-1.09489 -0.8926,-2.27184 -0.2905,-3.35723 0.4191,-0.75537 2.1128,-1.22123 3.1691,-1.83185 1.5384,-0.3773 2.9989,-0.83067 4.6151,-1.13187 2.8805,-0.53682 8.7443,-1.09563 11.6535,-1.41821 6.6776,-0.74042 13.3773,-1.49677 19.6717,-2.79317 1.7344,-0.45213 3.6332,-0.79181 5.2029,-1.35637 2.2084,-0.79431 4.9196,-2.5061 5.6854,-3.77188 1.4505,-2.39795 -0.5839,-4.92918 -2.6446,-7.07988 -1.0509,-0.76536 -2.0272,-1.55327 -3.1523,-2.29607 -4.5702,-3.01722 -10.2969,-5.67955 -16.6034,-7.93313 0,0 17.9027,-0.69769 17.9027,-0.69769 z"
       inkscape:connector-curvature="0" />
    <path
       style="fill:#ff0000;fill-opacity:1;fill-rule:evenodd;stroke:#ff0000;stroke-width:0.61454529;stroke-opacity:1"
       id="path4459"
       d="m 125.69515,582.56042 c -0.39832,15.93451 0.54893,31.89233 2.24455,47.73351 0.60189,5.62306 1.37645,11.22629 2.06467,16.83944 1.9226,14.29698 4.3608,28.51447 6.8236,42.7254 0,0 -17.49961,0.25006 -17.49961,0.25006 l 0,0 c -1.63306,-14.26785 -3.23803,-28.54042 -5.20624,-42.76721 -3.038,-21.52616 -6.10177,-43.06161 -9.94217,-64.46084 0,0 21.5152,-0.32036 21.5152,-0.32036 z"
       inkscape:connector-curvature="0" />
    <path
       style="fill:#ff0000;fill-opacity:1;fill-rule:evenodd;stroke:#ff0000;stroke-width:0.61454529;stroke-opacity:1"
       id="path4465"
       d="m 146.70993,583.40513 c 1.33801,0.35316 2.66011,0.77331 4.01403,1.05949 18.89022,3.99295 38.22061,5.65688 57.39454,7.62682 0,0 -13.24194,9.41626 -13.24194,9.41626 l 0,0 c -21.9009,-2.2269 -43.82197,-4.2257 -65.78749,-5.69685 0,0 17.62086,-12.40572 17.62086,-12.40572 z"
       inkscape:connector-curvature="0" />
    <path
       style="fill:#ff0000;fill-opacity:1;fill-rule:evenodd;stroke:#ff0000;stroke-width:0.61454529;stroke-opacity:1"
       id="path4467"
       d="m 152.30341,621.8177 c 13.63626,3.01963 27.52095,4.60019 41.37038,6.24653 0,0 -13.12642,9.33011 -13.12642,9.33011 l 0,0 c -15.28191,-1.37789 -30.59729,-2.86698 -45.9537,-2.97751 0,0 17.70974,-12.59913 17.70974,-12.59913 z"
       inkscape:connector-curvature="0" />
    <path
       style="fill:#ff0000;fill-opacity:1;fill-rule:evenodd;stroke:#ff0000;stroke-width:0.61454529;stroke-opacity:1"
       id="path4469"
       d="m 237.62724,596.07806 c -2.05583,16.41907 -0.40265,33.00007 1.13599,49.38642 0,0 -15.94933,8.31467 -15.94933,8.31467 l 0,0 c -1.48462,-15.96592 -3.07155,-31.92402 -4.42009,-47.90115 0,0 19.23343,-9.79994 19.23343,-9.79994 z"
       inkscape:connector-curvature="0" />
    <path
       style="fill:#ff0000;fill-opacity:1;fill-rule:evenodd;stroke:#ff0000;stroke-width:0.61454529;stroke-opacity:1"
       id="path4471"
       d="m 236.60587,593.88463 c 2.77135,0.54987 2.95719,0.65207 6.60427,0.84974 6.88604,0.37324 15.40966,0.35055 22.10612,0.30159 10.47744,-0.0766 20.95347,-0.28983 31.43042,-0.41477 5.54136,-0.0291 11.08265,-0.0582 16.62394,-0.0873 0,0 -12.9441,9.41803 -12.9441,9.41803 l 0,0 c -5.55518,0.0471 -11.11036,0.0943 -16.66555,0.14147 -15.6076,0.40213 -16.95757,0.358 -32.28753,1.05556 -8.20221,0.37323 -16.39078,1.03049 -24.59579,1.33672 -4.19308,0.1565 -4.75828,0.0511 -8.14473,-0.20351 0,0 17.87295,-12.39756 17.87295,-12.39756 z"
       inkscape:connector-curvature="0" />
    <path
       style="fill:#ff0000;fill-opacity:1;fill-rule:evenodd;stroke:#ff0000;stroke-width:0.61454529;stroke-opacity:1"
       id="path4473"
       d="m 249.94507,620.82317 c 11.48898,1.27848 22.96242,2.7012 34.47205,3.83471 0,0 -14.6298,10.43267 -14.6298,10.43267 l 0,0 c -12.40687,-0.98197 -24.88423,-2.1936 -37.34028,-1.55431 0,0 17.49803,-12.71307 17.49803,-12.71307 z"
       inkscape:connector-curvature="0" />
    <path
       style="fill:#ff0000;fill-opacity:1;fill-rule:evenodd;stroke:#ff0000;stroke-width:0.61454529;stroke-opacity:1"
       id="path4475"
       d="m 233.64186,660.97386 c 9.0324,0.20852 17.94945,1.81283 26.88383,2.98844 5.63501,0.74146 11.28195,1.38922 16.92286,2.08384 21.69584,2.70714 43.49583,4.36347 65.29023,6.01116 0,0 -11.4818,8.20286 -11.4818,8.20286 l 0,0 c -22.16666,-1.87116 -44.33386,-3.75868 -66.53818,-5.13815 -19.1654,-1.12656 -14.96645,-1.03256 -31.98315,-1.53854 -4.10077,-0.12193 -7.97156,-0.25552 -12.04272,-0.0721 -2.35087,0.10589 -2.58619,0.19121 -4.50209,0.52373 0,0 17.45102,-13.06121 17.45102,-13.06121 z"
       inkscape:connector-curvature="0" />
    <path
       style="fill:#ff0000;fill-opacity:1;fill-rule:evenodd;stroke:#ff0000;stroke-width:0.44530463;stroke-opacity:1"
       id="path4477"
       d="m 319.18638,546.32434 c -8.01067,10.69127 -15.58106,21.85541 -23.13727,33.01962 0,0 -10.68565,-1.99752 -10.68565,-1.99752 l 0,0 c 7.06531,-10.77761 14.38565,-21.5075 20.05052,-33.44427 0,0 13.7724,2.42217 13.7724,2.42217 z"
       inkscape:connector-curvature="0" />
    <path
       style="fill:#ff0000;fill-opacity:1;fill-rule:evenodd;stroke:#ff0000;stroke-width:0.61454529;stroke-opacity:1"
       id="path4479"
       d="m 369.20038,592.95453 c -0.3135,1.8504 -0.7001,3.68989 -0.9404,5.5512 -1.2646,9.79255 -1.524,14.66775 -1.8876,25.0238 -0.5823,16.58692 -0.3629,33.16556 -0.1246,49.75524 0,0 -15.1316,5.77338 -15.1316,5.77338 l 0,0 c 0.094,-26.20361 -0.023,-52.45591 -2.0623,-78.59393 0,0 20.1465,-7.50969 20.1465,-7.50969 z"
       inkscape:connector-curvature="0" />
    <path
       style="fill:#ff0000;fill-opacity:1;fill-rule:evenodd;stroke:#ff0000;stroke-width:0.53730488;stroke-opacity:1"
       id="path4489"
       d="m 388.55868,611.22115 c 0.2989,2.04 0.4442,4.12935 0.8967,6.11998 5.7146,25.13438 18.3063,44.43001 30.4973,64.54823 0,0 -10.5885,-1.65769 -10.5885,-1.65769 l 0,0 c -13.924,-22.57513 -28.6824,-45.11482 -36.9418,-72.44314 0,0 16.1363,3.43262 16.1363,3.43262 z"
       inkscape:connector-curvature="0" />
    <path
       style="fill:#ff0000;fill-opacity:1;fill-rule:evenodd;stroke:#ff0000;stroke-width:0.61454529;stroke-opacity:1"
       id="path4491"
       d="m 438.19828,608.2829 c -2.8946,15.69449 -3.9767,31.67839 -4.9923,47.58368 -0.6232,17.85119 -0.4219,9.06503 -0.6235,26.35804 0,0 -17.3918,-0.0411 -17.3918,-0.0411 l 0,0 c 0.6151,-17.31113 0.3341,-8.51204 0.8364,-26.39745 0.473,-15.81993 1.281,-31.68859 0.3722,-47.50323 0,0 21.799,0 21.799,0 z"
       inkscape:connector-curvature="0" />
    <path
       style="fill:#ff0000;fill-opacity:1;fill-rule:evenodd;stroke:#ff0000;stroke-width:0.61454529;stroke-opacity:1"
       id="path4493"
       d="m 486.47338,587.27243 c -0.197,1.4844 -0.3235,2.97702 -0.507,4.46296 -0.7852,6.35753 -1.0961,7.51796 -1.7121,14.78173 -0.8378,9.88032 -0.8326,13.37954 -1.1859,23.41949 -0.6973,19.9227 0.07,39.84387 1.305,59.72651 0,0 -18.4513,0.0618 -18.4513,0.0618 l 0,0 c -0.099,-19.94404 -0.376,-39.8868 -0.4851,-59.83086 0.186,-14.19836 0.4979,-28.46149 -0.7414,-42.62163 0,0 21.7778,0 21.7778,0 z"
       inkscape:connector-curvature="0" />
    <path
       style="fill:#ff0000;fill-opacity:1;fill-rule:evenodd;stroke:#ff0000;stroke-width:0.78532195;stroke-opacity:1"
       id="path4495"
       d="m 535.92568,597.28987 c 5.3617,14.85708 16.2653,26.39532 26.9907,36.92457 9.6332,9.45703 17.5314,15.87496 27.7335,24.56562 4.4422,3.44713 8.8845,6.89427 13.3268,10.3414 0,0 -21.1229,2.1337 -21.1229,2.1337 l 0,0 c -4.2571,-3.49251 -8.5142,-6.98502 -12.7713,-10.47752 -8.8607,-7.67622 -19.4584,-16.72206 -28.0441,-24.71607 -11.9664,-11.14157 -24.0276,-22.83884 -32.2649,-37.58243 0,0 26.1522,-1.18927 26.1522,-1.18927 z"
       inkscape:connector-curvature="0" />
    <path
       style="fill:#ff0000;fill-opacity:1;fill-rule:evenodd;stroke:#ff0000;stroke-width:0.78532195;stroke-opacity:1"
       id="path4497"
       d="m 629.76658,598.16572 c -21.8359,19.32791 -41.9246,40.81696 -62.0999,62.10336 -8.7187,9.16019 -17.397,18.36495 -26.0976,27.54501 0,0 -23.0895,-2.0378 -23.0895,-2.0378 l 0,0 c 9.3132,-9.0745 18.578,-18.20551 27.8134,-27.37211 19.8126,-20.01635 39.8589,-39.98555 57.2381,-62.54216 0,0 26.2355,2.3037 26.2355,2.3037 z"
       inkscape:connector-curvature="0" />
    <path
       style="fill:#ff0000;fill-opacity:1;fill-rule:evenodd;stroke:#ff0000;stroke-width:0.14920038;stroke-opacity:1"
       d="m 362.72918,297.18332 c -1.8117,2.58182 -3.9277,4.73202 -5.9903,6.91369 l 2.2417,1.32318 c 2.1884,-2.24175 4.38,-4.4824 6.6451,-6.56983 l -2.8965,-1.66704 z m -40.0167,-3.59758 -4.722,-1.56729 c -0.1859,5.70073 -0.5487,11.37641 -0.91654,17.04771 -0.25172,3.74515 -0.5853,7.47405 -0.9123,11.20392 l 3.84034,1.27729 c 0.1428,-3.77903 0.2914,-7.55781 0.5564,-11.31725 0.094,-1.1663 0.1765,-2.3352 0.2752,-3.50058 2.6365,1.05534 5.2358,2.27575 7.8334,3.47973 l 3.3193,-1.35178 c -2.9507,-1.47693 -5.9125,-2.93999 -8.7507,-4.74755 l -2.2424,0.91452 c 0.2523,-2.53554 0.5725,-5.05813 0.9873,-7.54995 4.3405,1.90482 8.653,3.91298 12.9524,5.96936 l 3.3483,-1.36456 c -4.0999,-1.96661 -8.2486,-3.86811 -12.1895,-6.32411 -0.2825,-0.17602 -0.5516,-0.38321 -0.8273,-0.57495 l -3.1049,1.24508 c 0.1696,-0.9517 0.3525,-1.89893 0.553,-2.83959 z m 72.7806,26.75772 c -0.4079,3.67248 -1.1604,7.25191 -1.882,10.82484 -0.9326,5.04722 -1.8282,10.10729 -2.7631,15.15369 l 4.0392,1.39774 c 0.6835,-5.11791 1.471,-10.20965 2.579,-15.18969 0.5588,-2.50953 0.7256,-3.39412 1.3826,-5.82618 0.4831,-1.78802 0.6067,-2.05733 1.0834,-3.60342 0.1114,-0.36137 0.2108,-0.72864 0.3251,-1.08857 l -4.7642,-1.66841 z m -21.1629,-5.88032 -4.7673,0.3537 c -0.8074,6.76001 -2.0407,13.40183 -3.318,20.01492 l 3.5868,-0.29947 c 0.7436,-4.20963 1.4907,-8.41502 2.4136,-12.56108 0.5762,-2.58858 0.8669,-3.80034 1.6131,-6.17753 0.1417,-0.45184 0.3145,-0.88704 0.4718,-1.33054 z m -29.0506,-9.92296 -4.5044,1.76268 c 0.158,0.0703 0.2793,0.12487 0.3944,0.176 l -0.5304,0.16255 c -0.6109,4.87088 -1.1689,9.75427 -1.7496,14.63219 l 3.9493,-1.2631 c 0.2146,-1.81314 0.4287,-3.63465 0.6782,-5.44641 2.387,0.78854 4.7178,1.88282 7.0451,2.92873 l 3.7006,-1.51513 c -2.4634,-1.16815 -4.9052,-2.4066 -7.3571,-3.60978 l -3.2739,1.38095 c 0.2996,-2.07125 0.6556,-4.12507 1.1249,-6.13379 1.0789,0.29996 2.1588,0.59262 3.2352,0.90983 3.387,0.99818 3.6802,1.11289 7.1137,2.207 1.2176,0.41367 2.4349,0.82721 3.6524,1.2409 l 3.2832,-1.3877 c -1.2136,-0.41717 -2.4271,-0.83454 -3.6407,-1.2517 -2.298,-0.77108 -4.5997,-1.51957 -6.8954,-2.30288 -1.4672,-0.50064 -3.3331,-1.14787 -4.8216,-1.76973 -0.7883,-0.32932 -0.8239,-0.36937 -1.4039,-0.72061 z m 80.1729,28.60948 c -3.2122,2.87279 -6.6244,5.37191 -10.0895,7.75489 -0.2085,-0.37982 -0.4196,-0.76999 -0.6347,-1.17663 -1.8413,-3.48188 -3.6732,-7.23228 -4.1336,-11.39666 l -5.7778,-1.70325 c 1.0948,4.35603 3.1722,8.23552 5.2557,11.96718 0.7499,1.34329 1.5979,2.79211 2.4551,4.23325 -0.8653,0.5805 -1.731,1.15923 -2.5958,1.73743 -2.46,1.60842 -4.9248,3.20559 -7.3973,4.78479 l 4.9533,2.28381 c 2.3436,-1.65276 4.6836,-3.3136 7.0302,-4.95995 0.074,-0.0521 0.1479,-0.10406 0.2217,-0.15616 0.092,0.15375 0.1916,0.319 0.2821,0.46973 l 2.2915,3.62556 4.7232,1.07902 -2.4194,-3.63376 c -0.7631,-1.25188 -1.4552,-2.37053 -2.1255,-3.47974 4.449,-3.131 8.9253,-6.21258 13.5894,-8.83773 l -5.6286,-2.59178 z m -51.1287,-14.69205 c 0.4963,7.53723 2.6436,14.36243 4.607,21.13273 l 1.2386,0.68118 c -0.034,0.15255 -0.02,0.0862 -0.058,0.25857 l 3.8028,1.34272 c 0.8734,-4.35362 0.4081,-2.14927 1.4006,-6.61156 0.985,-3.94066 1.9882,-7.89619 3.3741,-11.63963 l -4.7687,-1.67007 c -0.5597,4.06518 -1.4975,8.01259 -2.3597,11.97324 -0.6817,3.15653 -0.7664,3.54495 -1.0215,4.6878 -1.4954,-5.25561 -2.9083,-10.48111 -2.9475,-16.43658 -0.01,-0.53763 0.065,-1.07666 0.097,-1.61496 l -3.3651,-2.10342 z m -32.91,2.80543 -4.4441,1.96295 c 0.4351,0.0631 0.4906,0.0593 1.01,0.21271 0.8994,0.26554 1.7399,0.59587 2.6312,0.94085 3.6982,1.43148 2.7841,1.08578 6.9226,2.83867 4.7913,2.04958 9.5499,4.22471 14.3093,6.39563 l 2.9051,-1.19278 c -4.6887,-2.08596 -9.3782,-4.1745 -13.9945,-6.52057 -1.2007,-0.60766 -2.4049,-1.20388 -3.6021,-1.8229 -1.898,-0.98149 -3.7715,-2.06993 -5.7375,-2.81456 z"
       id="path4459-6"
       inkscape:connector-curvature="0" />
  </g>
</svg>
